%FSLAX33Y33*%
%MOMM*%
%ADD10C,3.9878*%
%ADD11C,1.7018*%
%ADD12C,1.4986*%
%ADD13C,0.043*%
%ADD14C,1.05*%
D10*
%LNhole_traces*%
%LNhole component 118461a693938141*%
G01*
X71500Y-9500D03*
D11*
X76580Y-9500D03*
X66420Y-9500D03*
D12*
X68960Y-4420D03*
X75310Y-6960D03*
D13*
X71500Y-9500D03*
%LNhole component b7764440c1067c91*%
D10*
X50500Y-30500D03*
D11*
X55580Y-30500D03*
X45420Y-30500D03*
D12*
X47960Y-25420D03*
X54310Y-27960D03*
D13*
X50500Y-30500D03*
%LNhole component ed0e58f81314bdfd*%
D10*
X8500Y-9500D03*
D11*
X13580Y-9500D03*
X3420Y-9500D03*
D12*
X5960Y-4420D03*
X12310Y-6960D03*
D13*
X8500Y-9500D03*
%LNhole component b3c71203d1b20706*%
D10*
X50500Y-9500D03*
D11*
X55580Y-9500D03*
X45420Y-9500D03*
D12*
X47960Y-4420D03*
X54310Y-6960D03*
D13*
X50500Y-9500D03*
%LNhole component a3b9f0071d7600ca*%
D14*
X30840Y-20000D03*
X33380Y-20000D03*
X35920Y-20000D03*
X38460Y-20000D03*
X41000Y-20000D03*
X43540Y-20000D03*
X46080Y-20000D03*
X48620Y-20000D03*
X51160Y-20000D03*
%LNhole component 0ae264cf7c3ad07f*%
D10*
X71500Y-30500D03*
D11*
X76580Y-30500D03*
X66420Y-30500D03*
D12*
X68960Y-25420D03*
X75310Y-27960D03*
D13*
X71500Y-30500D03*
%LNhole component 06c8c79044f291b9*%
D10*
X29500Y-30500D03*
D11*
X34580Y-30500D03*
X24420Y-30500D03*
D12*
X26960Y-25420D03*
X33310Y-27960D03*
D13*
X29500Y-30500D03*
%LNhole component c5ff65cb899c6344*%
D10*
X8500Y-30500D03*
D11*
X13580Y-30500D03*
X3420Y-30500D03*
D12*
X5960Y-25420D03*
X12310Y-27960D03*
D13*
X8500Y-30500D03*
%LNhole component 7c0abfb9efbc0124*%
D10*
X29500Y-9500D03*
D11*
X34580Y-9500D03*
X24420Y-9500D03*
D12*
X26960Y-4420D03*
X33310Y-6960D03*
D13*
X29500Y-9500D03*
M02*