%FSLAX33Y33*%
%MOMM*%
%ADD10C,0.15*%
%ADD11C,0.5*%
D10*
%LNtop silkscreen_traces*%
%LNtop silkscreen component a3b9f0071d7600ca*%
G01*
X51160Y-21250D02*
X30840Y-21250D01*
X30840Y-18750*
X51160Y-18750*
X51160Y-21250*
D11*
X30840Y-22000D03*
G36*
X29437Y-22221D02*
X29425Y-22136D01*
X29463Y-22133D01*
X29494Y-22126D01*
X29519Y-22117D01*
X29537Y-22105D01*
X29551Y-22090D01*
X29560Y-22072D01*
X29566Y-22052D01*
X29568Y-22029D01*
X29567Y-22012D01*
X29564Y-21996D01*
X29559Y-21981D01*
X29551Y-21968D01*
X29542Y-21956D01*
X29532Y-21946D01*
X29520Y-21938D01*
X29507Y-21932D01*
X29491Y-21928D01*
X29471Y-21925D01*
X29446Y-21923D01*
X29417Y-21922D01*
X28924Y-21922D01*
X28924Y-21828D01*
X29412Y-21828D01*
X29454Y-21829D01*
X29492Y-21833D01*
X29524Y-21840D01*
X29551Y-21849D01*
X29574Y-21862D01*
X29595Y-21877D01*
X29612Y-21896D01*
X29626Y-21918D01*
X29638Y-21943D01*
X29646Y-21969D01*
X29651Y-21998D01*
X29652Y-22029D01*
X29649Y-22073D01*
X29639Y-22112D01*
X29622Y-22145D01*
X29598Y-22173D01*
X29568Y-22195D01*
X29531Y-22210D01*
X29487Y-22219D01*
X29437Y-22221D01*
X29437Y-22221D01*
X29640Y-21377D02*
X29640Y-21465D01*
X29080Y-21465D01*
X29095Y-21482D01*
X29110Y-21502D01*
X29125Y-21524D01*
X29140Y-21549D01*
X29155Y-21574D01*
X29167Y-21597D01*
X29177Y-21620D01*
X29186Y-21641D01*
X29101Y-21641D01*
X29083Y-21605D01*
X29063Y-21572D01*
X29041Y-21541D01*
X29017Y-21512D01*
X28992Y-21487D01*
X28968Y-21465D01*
X28945Y-21448D01*
X28921Y-21434D01*
X28921Y-21377D01*
X29640Y-21377D01*
X29640Y-21377D01*
G37*
M02*